solid OpenSCAD_Model
  facet normal 0 0 -1
    outer loop
      vertex 4.61862 1.96901 2.5
      vertex 4.8478 2.12375 2.5
      vertex 4.90371 2.01995 2.5
    endloop
  endfacet
  facet normal 0 -0 -1
    outer loop
      vertex 3.18736 1.86067 2.5
      vertex 3.24442 1.36563 2.5
      vertex 2.894 1.74994 2.5
    endloop
  endfacet
  facet normal 0 0 -1
    outer loop
      vertex 3.54336 1.27298 2.5
      vertex 3.82589 1.3823 2.5
      vertex 4.99173 1.24992 2.5
    endloop
  endfacet
  facet normal 0 0 -1
    outer loop
      vertex 3.43246 1.89162 2.5
      vertex 3.24442 1.36563 2.5
      vertex 3.18736 1.86067 2.5
    endloop
  endfacet
  facet normal 0 -0 -1
    outer loop
      vertex 5.73647 1.50204 2.5
      vertex 6.65085 0.674894 2.5
      vertex 5.38226 1.36343 2.5
    endloop
  endfacet
  facet normal 0 0 -1
    outer loop
      vertex 6.65085 0.674894 2.5
      vertex 5.73647 1.50204 2.5
      vertex 6.07758 1.6923 2.5
    endloop
  endfacet
  facet normal -0 0 -1
    outer loop
      vertex 6.79284 1.94009 2.5
      vertex 6.7722 1.56001 2.5
      vertex 6.57742 1.9938 2.5
    endloop
  endfacet
  facet normal 0 0 -1
    outer loop
      vertex 6.79284 1.94009 2.5
      vertex 6.57742 1.9938 2.5
      vertex 6.7722 2.07965 2.5
    endloop
  endfacet
  facet normal 0 0 -1
    outer loop
      vertex 6.7722 1.56001 2.5
      vertex 6.07758 1.6923 2.5
      vertex 6.57742 1.9938 2.5
    endloop
  endfacet
  facet normal 0 0 -1
    outer loop
      vertex 6.65085 0.674894 2.5
      vertex 6.07758 1.6923 2.5
      vertex 6.7722 1.56001 2.5
    endloop
  endfacet
  facet normal 0 0 -1
    outer loop
      vertex 4.99173 1.24992 2.5
      vertex 5.38226 1.36343 2.5
      vertex 6.65085 0.674894 2.5
    endloop
  endfacet
  facet normal 0 -0 -1
    outer loop
      vertex 7.18143 1.13985 2.5
      vertex 7.87816 0.771202 2.5
      vertex 6.96309 1.00187 2.5
    endloop
  endfacet
  facet normal 0 0 -1
    outer loop
      vertex 7.87816 0.771202 2.5
      vertex 6.79575 0.849298 2.5
      vertex 6.96309 1.00187 2.5
    endloop
  endfacet
  facet normal 0 -0 -1
    outer loop
      vertex 7.67073 1.30566 2.5
      vertex 7.87816 0.771202 2.5
      vertex 7.54633 1.28057 2.5
    endloop
  endfacet
  facet normal 0 0 -1
    outer loop
      vertex 7.87816 0.771202 2.5
      vertex 7.18143 1.13985 2.5
      vertex 7.54633 1.28057 2.5
    endloop
  endfacet
  facet normal 0 0 -1
    outer loop
      vertex 6.65085 0.674894 2.5
      vertex 6.79575 0.849298 2.5
      vertex 8.00525 0.533917 2.5
    endloop
  endfacet
  facet normal 0 0 -1
    outer loop
      vertex 8.00525 0.533917 2.5
      vertex 6.79575 0.849298 2.5
      vertex 7.87816 0.771202 2.5
    endloop
  endfacet
  facet normal 0 0 -1
    outer loop
      vertex 6.65085 0.674894 2.5
      vertex 8.00525 0.533917 2.5
      vertex 8.06619 0.47628 2.5
    endloop
  endfacet
  facet normal 0 0 -1
    outer loop
      vertex 8.97283 -0.0542947 2.5
      vertex 8.06619 0.47628 2.5
      vertex 8.82615 0.16229 2.5
    endloop
  endfacet
  facet normal 0 0 -1
    outer loop
      vertex 8.82615 0.16229 2.5
      vertex 8.14627 0.521876 2.5
      vertex 8.68677 0.477469 2.5
    endloop
  endfacet
  facet normal 0 -0 -1
    outer loop
      vertex 8.54174 0.885148 2.5
      vertex 8.68677 0.477469 2.5
      vertex 8.36909 0.826659 2.5
    endloop
  endfacet
  facet normal 0 0 -1
    outer loop
      vertex 8.54174 0.885148 2.5
      vertex 8.36909 0.826659 2.5
      vertex 8.45045 0.875403 2.5
    endloop
  endfacet
  facet normal 0 0 -1
    outer loop
      vertex 8.68677 0.477469 2.5
      vertex 8.29303 0.716171 2.5
      vertex 8.36909 0.826659 2.5
    endloop
  endfacet
  facet normal 0 0 -1
    outer loop
      vertex 8.06619 0.47628 2.5
      vertex 8.14627 0.521876 2.5
      vertex 8.82615 0.16229 2.5
    endloop
  endfacet
  facet normal 0 0 -1
    outer loop
      vertex 8.14627 0.521876 2.5
      vertex 8.29303 0.716171 2.5
      vertex 8.68677 0.477469 2.5
    endloop
  endfacet
  facet normal 0 0 -1
    outer loop
      vertex 6.65085 0.674894 2.5
      vertex 8.06619 0.47628 2.5
      vertex 8.97283 -0.0542947 2.5
    endloop
  endfacet
  facet normal 0 0 -1
    outer loop
      vertex 6.65085 0.674894 2.5
      vertex 8.97283 -0.0542947 2.5
      vertex 9.22383 -0.201491 2.5
    endloop
  endfacet
  facet normal 0 0 -1
    outer loop
      vertex 3.54336 1.27298 2.5
      vertex 6.65085 0.674894 2.5
      vertex 9.22383 -0.201491 2.5
    endloop
  endfacet
  facet normal 0 -0 -1
    outer loop
      vertex 4.11614 1.58224 2.5
      vertex 4.99173 1.24992 2.5
      vertex 3.82589 1.3823 2.5
    endloop
  endfacet
  facet normal 0 0 -1
    outer loop
      vertex 5.011 1.41807 2.5
      vertex 4.11614 1.58224 2.5
      vertex 4.61862 1.96901 2.5
    endloop
  endfacet
  facet normal 0 0 -1
    outer loop
      vertex 5.011 1.41807 2.5
      vertex 4.61862 1.96901 2.5
      vertex 5.00302 1.71453 2.5
    endloop
  endfacet
  facet normal 0 -0 -1
    outer loop
      vertex 2.894 1.74994 2.5
      vertex 3.24442 1.36563 2.5
      vertex 2.4983 1.51168 2.5
    endloop
  endfacet
  facet normal -0 -0 -1
    outer loop
      vertex 4.99173 1.24992 2.5
      vertex 6.65085 0.674894 2.5
      vertex 3.54336 1.27298 2.5
    endloop
  endfacet
  facet normal 0 0 -1
    outer loop
      vertex 2.4983 1.51168 2.5
      vertex 3.54336 1.27298 2.5
      vertex 9.22383 -0.201491 2.5
    endloop
  endfacet
  facet normal 0 0 -1
    outer loop
      vertex 2.4983 1.51168 2.5
      vertex 3.24442 1.36563 2.5
      vertex 3.54336 1.27298 2.5
    endloop
  endfacet
  facet normal -0 0 -1
    outer loop
      vertex 5.011 1.41807 2.5
      vertex 4.99173 1.24992 2.5
      vertex 4.11614 1.58224 2.5
    endloop
  endfacet
  facet normal 0 0 -1
    outer loop
      vertex 4.61862 1.96901 2.5
      vertex 4.90371 2.01995 2.5
      vertex 5.00302 1.71453 2.5
    endloop
  endfacet
  facet normal 0 0 1
    outer loop
      vertex 4.90371 2.01995 3.5
      vertex 4.8478 2.12375 3.5
      vertex 4.61862 1.96901 3.5
    endloop
  endfacet
  facet normal -0 0 1
    outer loop
      vertex 2.894 1.74994 3.5
      vertex 3.24442 1.36563 3.5
      vertex 3.18736 1.86067 3.5
    endloop
  endfacet
  facet normal 0 0 1
    outer loop
      vertex 4.99173 1.24992 3.5
      vertex 3.82589 1.3823 3.5
      vertex 3.54336 1.27298 3.5
    endloop
  endfacet
  facet normal -0 0 1
    outer loop
      vertex 3.18736 1.86067 3.5
      vertex 3.24442 1.36563 3.5
      vertex 3.43246 1.89162 3.5
    endloop
  endfacet
  facet normal -0 0 1
    outer loop
      vertex 5.38226 1.36343 3.5
      vertex 6.65085 0.674894 3.5
      vertex 5.73647 1.50204 3.5
    endloop
  endfacet
  facet normal 0 0 1
    outer loop
      vertex 6.07758 1.6923 3.5
      vertex 5.73647 1.50204 3.5
      vertex 6.65085 0.674894 3.5
    endloop
  endfacet
  facet normal 0 0 1
    outer loop
      vertex 6.57742 1.9938 3.5
      vertex 6.7722 1.56001 3.5
      vertex 6.79284 1.94009 3.5
    endloop
  endfacet
  facet normal 0 0 1
    outer loop
      vertex 6.7722 2.07965 3.5
      vertex 6.57742 1.9938 3.5
      vertex 6.79284 1.94009 3.5
    endloop
  endfacet
  facet normal 0 0 1
    outer loop
      vertex 6.57742 1.9938 3.5
      vertex 6.07758 1.6923 3.5
      vertex 6.7722 1.56001 3.5
    endloop
  endfacet
  facet normal 0 0 1
    outer loop
      vertex 6.7722 1.56001 3.5
      vertex 6.07758 1.6923 3.5
      vertex 6.65085 0.674894 3.5
    endloop
  endfacet
  facet normal 0 0 1
    outer loop
      vertex 6.65085 0.674894 3.5
      vertex 5.38226 1.36343 3.5
      vertex 4.99173 1.24992 3.5
    endloop
  endfacet
  facet normal -0 0 1
    outer loop
      vertex 6.96309 1.00187 3.5
      vertex 7.87816 0.771202 3.5
      vertex 7.18143 1.13985 3.5
    endloop
  endfacet
  facet normal 0 0 1
    outer loop
      vertex 6.96309 1.00187 3.5
      vertex 6.79575 0.849298 3.5
      vertex 7.87816 0.771202 3.5
    endloop
  endfacet
  facet normal -0 0 1
    outer loop
      vertex 7.54633 1.28057 3.5
      vertex 7.87816 0.771202 3.5
      vertex 7.67073 1.30566 3.5
    endloop
  endfacet
  facet normal 0 0 1
    outer loop
      vertex 7.54633 1.28057 3.5
      vertex 7.18143 1.13985 3.5
      vertex 7.87816 0.771202 3.5
    endloop
  endfacet
  facet normal 0 0 1
    outer loop
      vertex 8.00525 0.533917 3.5
      vertex 6.79575 0.849298 3.5
      vertex 6.65085 0.674894 3.5
    endloop
  endfacet
  facet normal 0 0 1
    outer loop
      vertex 7.87816 0.771202 3.5
      vertex 6.79575 0.849298 3.5
      vertex 8.00525 0.533917 3.5
    endloop
  endfacet
  facet normal 0 0 1
    outer loop
      vertex 8.06619 0.47628 3.5
      vertex 8.00525 0.533917 3.5
      vertex 6.65085 0.674894 3.5
    endloop
  endfacet
  facet normal 0 0 1
    outer loop
      vertex 8.82615 0.16229 3.5
      vertex 8.06619 0.47628 3.5
      vertex 8.97283 -0.0542947 3.5
    endloop
  endfacet
  facet normal 0 0 1
    outer loop
      vertex 8.68677 0.477469 3.5
      vertex 8.14627 0.521876 3.5
      vertex 8.82615 0.16229 3.5
    endloop
  endfacet
  facet normal -0 0 1
    outer loop
      vertex 8.36909 0.826659 3.5
      vertex 8.68677 0.477469 3.5
      vertex 8.54174 0.885148 3.5
    endloop
  endfacet
  facet normal -0 0 1
    outer loop
      vertex 8.45045 0.875403 3.5
      vertex 8.36909 0.826659 3.5
      vertex 8.54174 0.885148 3.5
    endloop
  endfacet
  facet normal 0 0 1
    outer loop
      vertex 8.36909 0.826659 3.5
      vertex 8.29303 0.716171 3.5
      vertex 8.68677 0.477469 3.5
    endloop
  endfacet
  facet normal 0 0 1
    outer loop
      vertex 8.82615 0.16229 3.5
      vertex 8.14627 0.521876 3.5
      vertex 8.06619 0.47628 3.5
    endloop
  endfacet
  facet normal 0 0 1
    outer loop
      vertex 8.68677 0.477469 3.5
      vertex 8.29303 0.716171 3.5
      vertex 8.14627 0.521876 3.5
    endloop
  endfacet
  facet normal 0 0 1
    outer loop
      vertex 8.97283 -0.0542947 3.5
      vertex 8.06619 0.47628 3.5
      vertex 6.65085 0.674894 3.5
    endloop
  endfacet
  facet normal 0 0 1
    outer loop
      vertex 9.22383 -0.201491 3.5
      vertex 8.97283 -0.0542947 3.5
      vertex 6.65085 0.674894 3.5
    endloop
  endfacet
  facet normal 0 0 1
    outer loop
      vertex 9.22383 -0.201491 3.5
      vertex 6.65085 0.674894 3.5
      vertex 3.54336 1.27298 3.5
    endloop
  endfacet
  facet normal -0 0 1
    outer loop
      vertex 3.82589 1.3823 3.5
      vertex 4.99173 1.24992 3.5
      vertex 4.11614 1.58224 3.5
    endloop
  endfacet
  facet normal 0 0 1
    outer loop
      vertex 4.61862 1.96901 3.5
      vertex 4.11614 1.58224 3.5
      vertex 5.011 1.41807 3.5
    endloop
  endfacet
  facet normal 0 0 1
    outer loop
      vertex 5.00302 1.71453 3.5
      vertex 4.61862 1.96901 3.5
      vertex 5.011 1.41807 3.5
    endloop
  endfacet
  facet normal -0 0 1
    outer loop
      vertex 2.4983 1.51168 3.5
      vertex 3.24442 1.36563 3.5
      vertex 2.894 1.74994 3.5
    endloop
  endfacet
  facet normal 0 0 1
    outer loop
      vertex 3.54336 1.27298 3.5
      vertex 6.65085 0.674894 3.5
      vertex 4.99173 1.24992 3.5
    endloop
  endfacet
  facet normal 0 0 1
    outer loop
      vertex 9.22383 -0.201491 3.5
      vertex 3.54336 1.27298 3.5
      vertex 2.4983 1.51168 3.5
    endloop
  endfacet
  facet normal 0 0 1
    outer loop
      vertex 3.54336 1.27298 3.5
      vertex 3.24442 1.36563 3.5
      vertex 2.4983 1.51168 3.5
    endloop
  endfacet
  facet normal 0 0 1
    outer loop
      vertex 4.11614 1.58224 3.5
      vertex 4.99173 1.24992 3.5
      vertex 5.011 1.41807 3.5
    endloop
  endfacet
  facet normal 0 0 1
    outer loop
      vertex 5.00302 1.71453 3.5
      vertex 4.90371 2.01995 3.5
      vertex 4.61862 1.96901 3.5
    endloop
  endfacet
  facet normal 0.950989 0.309224 -0
    outer loop
      vertex 4.90371 2.01995 2.5
      vertex 4.90371 2.01995 3.5
      vertex 5.00302 1.71453 2.5
    endloop
  endfacet
  facet normal 0.950989 0.309224 0
    outer loop
      vertex 4.90371 2.01995 3.5
      vertex 5.00302 1.71453 3.5
      vertex 5.00302 1.71453 2.5
    endloop
  endfacet
  facet normal 0.999638 0.0269066 -0
    outer loop
      vertex 5.00302 1.71453 2.5
      vertex 5.00302 1.71453 3.5
      vertex 5.011 1.41807 2.5
    endloop
  endfacet
  facet normal 0.999638 0.0269066 0
    outer loop
      vertex 5.00302 1.71453 3.5
      vertex 5.011 1.41807 3.5
      vertex 5.011 1.41807 2.5
    endloop
  endfacet
  facet normal 0.993496 -0.113866 0
    outer loop
      vertex 5.011 1.41807 2.5
      vertex 5.011 1.41807 3.5
      vertex 4.99173 1.24992 2.5
    endloop
  endfacet
  facet normal 0.993496 -0.113866 0
    outer loop
      vertex 5.011 1.41807 3.5
      vertex 4.99173 1.24992 3.5
      vertex 4.99173 1.24992 2.5
    endloop
  endfacet
  facet normal -0.279091 0.960265 0
    outer loop
      vertex 4.99173 1.24992 2.5
      vertex 4.99173 1.24992 3.5
      vertex 5.38226 1.36343 2.5
    endloop
  endfacet
  facet normal -0.279091 0.960265 0
    outer loop
      vertex 4.99173 1.24992 3.5
      vertex 5.38226 1.36343 3.5
      vertex 5.38226 1.36343 2.5
    endloop
  endfacet
  facet normal -0.364413 0.931237 0
    outer loop
      vertex 5.38226 1.36343 2.5
      vertex 5.38226 1.36343 3.5
      vertex 5.73647 1.50204 2.5
    endloop
  endfacet
  facet normal -0.364413 0.931237 0
    outer loop
      vertex 5.38226 1.36343 3.5
      vertex 5.73647 1.50204 3.5
      vertex 5.73647 1.50204 2.5
    endloop
  endfacet
  facet normal -0.487128 0.873331 0
    outer loop
      vertex 5.73647 1.50204 2.5
      vertex 5.73647 1.50204 3.5
      vertex 6.07758 1.6923 2.5
    endloop
  endfacet
  facet normal -0.487128 0.873331 0
    outer loop
      vertex 5.73647 1.50204 3.5
      vertex 6.07758 1.6923 3.5
      vertex 6.07758 1.6923 2.5
    endloop
  endfacet
  facet normal -0.516496 0.85629 0
    outer loop
      vertex 6.07758 1.6923 2.5
      vertex 6.07758 1.6923 3.5
      vertex 6.57742 1.9938 2.5
    endloop
  endfacet
  facet normal -0.516496 0.85629 0
    outer loop
      vertex 6.07758 1.6923 3.5
      vertex 6.57742 1.9938 3.5
      vertex 6.57742 1.9938 2.5
    endloop
  endfacet
  facet normal -0.403345 0.915048 0
    outer loop
      vertex 6.57742 1.9938 2.5
      vertex 6.57742 1.9938 3.5
      vertex 6.7722 2.07965 2.5
    endloop
  endfacet
  facet normal -0.403345 0.915048 0
    outer loop
      vertex 6.57742 1.9938 3.5
      vertex 6.7722 2.07965 3.5
      vertex 6.7722 2.07965 2.5
    endloop
  endfacet
  facet normal 0.98924 0.1463 -0
    outer loop
      vertex 6.7722 2.07965 2.5
      vertex 6.7722 2.07965 3.5
      vertex 6.79284 1.94009 2.5
    endloop
  endfacet
  facet normal 0.98924 0.1463 0
    outer loop
      vertex 6.7722 2.07965 3.5
      vertex 6.79284 1.94009 3.5
      vertex 6.79284 1.94009 2.5
    endloop
  endfacet
  facet normal 0.998529 -0.0542262 0
    outer loop
      vertex 6.79284 1.94009 2.5
      vertex 6.79284 1.94009 3.5
      vertex 6.7722 1.56001 2.5
    endloop
  endfacet
  facet normal 0.998529 -0.0542262 0
    outer loop
      vertex 6.79284 1.94009 3.5
      vertex 6.7722 1.56001 3.5
      vertex 6.7722 1.56001 2.5
    endloop
  endfacet
  facet normal 0.990732 -0.135834 0
    outer loop
      vertex 6.7722 1.56001 2.5
      vertex 6.7722 1.56001 3.5
      vertex 6.65085 0.674894 2.5
    endloop
  endfacet
  facet normal 0.990732 -0.135834 0
    outer loop
      vertex 6.7722 1.56001 3.5
      vertex 6.65085 0.674894 3.5
      vertex 6.65085 0.674894 2.5
    endloop
  endfacet
  facet normal -0.769165 0.63905 0
    outer loop
      vertex 6.65085 0.674894 2.5
      vertex 6.65085 0.674894 3.5
      vertex 6.79575 0.849298 2.5
    endloop
  endfacet
  facet normal -0.769165 0.63905 0
    outer loop
      vertex 6.65085 0.674894 3.5
      vertex 6.79575 0.849298 3.5
      vertex 6.79575 0.849298 2.5
    endloop
  endfacet
  facet normal -0.673741 0.738968 0
    outer loop
      vertex 6.79575 0.849298 2.5
      vertex 6.79575 0.849298 3.5
      vertex 6.96309 1.00187 2.5
    endloop
  endfacet
  facet normal -0.673741 0.738968 0
    outer loop
      vertex 6.79575 0.849298 3.5
      vertex 6.96309 1.00187 3.5
      vertex 6.96309 1.00187 2.5
    endloop
  endfacet
  facet normal -0.534235 0.845336 0
    outer loop
      vertex 6.96309 1.00187 2.5
      vertex 6.96309 1.00187 3.5
      vertex 7.18143 1.13985 2.5
    endloop
  endfacet
  facet normal -0.534235 0.845336 0
    outer loop
      vertex 6.96309 1.00187 3.5
      vertex 7.18143 1.13985 3.5
      vertex 7.18143 1.13985 2.5
    endloop
  endfacet
  facet normal -0.359796 0.933031 0
    outer loop
      vertex 7.18143 1.13985 2.5
      vertex 7.18143 1.13985 3.5
      vertex 7.54633 1.28057 2.5
    endloop
  endfacet
  facet normal -0.359796 0.933031 0
    outer loop
      vertex 7.18143 1.13985 3.5
      vertex 7.54633 1.28057 3.5
      vertex 7.54633 1.28057 2.5
    endloop
  endfacet
  facet normal -0.197734 0.980256 0
    outer loop
      vertex 7.54633 1.28057 2.5
      vertex 7.54633 1.28057 3.5
      vertex 7.67073 1.30566 2.5
    endloop
  endfacet
  facet normal -0.197734 0.980256 0
    outer loop
      vertex 7.54633 1.28057 3.5
      vertex 7.67073 1.30566 3.5
      vertex 7.67073 1.30566 2.5
    endloop
  endfacet
  facet normal 0.932247 0.361822 -0
    outer loop
      vertex 7.67073 1.30566 2.5
      vertex 7.67073 1.30566 3.5
      vertex 7.87816 0.771202 2.5
    endloop
  endfacet
  facet normal 0.932247 0.361822 0
    outer loop
      vertex 7.67073 1.30566 3.5
      vertex 7.87816 0.771202 3.5
      vertex 7.87816 0.771202 2.5
    endloop
  endfacet
  facet normal 0.881529 0.47213 -0
    outer loop
      vertex 7.87816 0.771202 2.5
      vertex 7.87816 0.771202 3.5
      vertex 8.00525 0.533917 2.5
    endloop
  endfacet
  facet normal 0.881529 0.47213 0
    outer loop
      vertex 7.87816 0.771202 3.5
      vertex 8.00525 0.533917 3.5
      vertex 8.00525 0.533917 2.5
    endloop
  endfacet
  facet normal 0.687118 0.726546 -0
    outer loop
      vertex 8.00525 0.533917 2.5
      vertex 8.00525 0.533917 3.5
      vertex 8.06619 0.47628 2.5
    endloop
  endfacet
  facet normal 0.687118 0.726546 0
    outer loop
      vertex 8.00525 0.533917 3.5
      vertex 8.06619 0.47628 3.5
      vertex 8.06619 0.47628 2.5
    endloop
  endfacet
  facet normal -0.49479 0.869013 0
    outer loop
      vertex 8.06619 0.47628 2.5
      vertex 8.06619 0.47628 3.5
      vertex 8.14627 0.521876 2.5
    endloop
  endfacet
  facet normal -0.49479 0.869013 0
    outer loop
      vertex 8.06619 0.47628 3.5
      vertex 8.14627 0.521876 3.5
      vertex 8.14627 0.521876 2.5
    endloop
  endfacet
  facet normal -0.797962 0.602707 0
    outer loop
      vertex 8.14627 0.521876 2.5
      vertex 8.14627 0.521876 3.5
      vertex 8.29303 0.716171 2.5
    endloop
  endfacet
  facet normal -0.797962 0.602707 0
    outer loop
      vertex 8.14627 0.521876 3.5
      vertex 8.29303 0.716171 3.5
      vertex 8.29303 0.716171 2.5
    endloop
  endfacet
  facet normal -0.82367 0.56707 0
    outer loop
      vertex 8.29303 0.716171 2.5
      vertex 8.29303 0.716171 3.5
      vertex 8.36909 0.826659 2.5
    endloop
  endfacet
  facet normal -0.82367 0.56707 0
    outer loop
      vertex 8.29303 0.716171 3.5
      vertex 8.36909 0.826659 3.5
      vertex 8.36909 0.826659 2.5
    endloop
  endfacet
  facet normal -0.513935 0.857829 0
    outer loop
      vertex 8.36909 0.826659 2.5
      vertex 8.36909 0.826659 3.5
      vertex 8.45045 0.875403 2.5
    endloop
  endfacet
  facet normal -0.513935 0.857829 0
    outer loop
      vertex 8.36909 0.826659 3.5
      vertex 8.45045 0.875403 3.5
      vertex 8.45045 0.875403 2.5
    endloop
  endfacet
  facet normal -0.106157 0.994349 0
    outer loop
      vertex 8.45045 0.875403 2.5
      vertex 8.45045 0.875403 3.5
      vertex 8.54174 0.885148 2.5
    endloop
  endfacet
  facet normal -0.106157 0.994349 0
    outer loop
      vertex 8.45045 0.875403 3.5
      vertex 8.54174 0.885148 3.5
      vertex 8.54174 0.885148 2.5
    endloop
  endfacet
  facet normal 0.942155 0.335177 -0
    outer loop
      vertex 8.54174 0.885148 2.5
      vertex 8.54174 0.885148 3.5
      vertex 8.68677 0.477469 2.5
    endloop
  endfacet
  facet normal 0.942155 0.335177 0
    outer loop
      vertex 8.54174 0.885148 3.5
      vertex 8.68677 0.477469 3.5
      vertex 8.68677 0.477469 2.5
    endloop
  endfacet
  facet normal 0.914568 0.404432 -0
    outer loop
      vertex 8.68677 0.477469 2.5
      vertex 8.68677 0.477469 3.5
      vertex 8.82615 0.16229 2.5
    endloop
  endfacet
  facet normal 0.914568 0.404432 0
    outer loop
      vertex 8.68677 0.477469 3.5
      vertex 8.82615 0.16229 3.5
      vertex 8.82615 0.16229 2.5
    endloop
  endfacet
  facet normal 0.827981 0.560756 -0
    outer loop
      vertex 8.82615 0.16229 2.5
      vertex 8.82615 0.16229 3.5
      vertex 8.97283 -0.0542947 2.5
    endloop
  endfacet
  facet normal 0.827981 0.560756 0
    outer loop
      vertex 8.82615 0.16229 3.5
      vertex 8.97283 -0.0542947 3.5
      vertex 8.97283 -0.0542947 2.5
    endloop
  endfacet
  facet normal 0.505866 0.862612 -0
    outer loop
      vertex 8.97283 -0.0542947 2.5
      vertex 8.97283 -0.0542947 3.5
      vertex 9.22383 -0.201491 2.5
    endloop
  endfacet
  facet normal 0.505866 0.862612 0
    outer loop
      vertex 8.97283 -0.0542947 3.5
      vertex 9.22383 -0.201491 3.5
      vertex 9.22383 -0.201491 2.5
    endloop
  endfacet
  facet normal -0.246844 -0.969055 0
    outer loop
      vertex 9.22383 -0.201491 2.5
      vertex 9.22383 -0.201491 3.5
      vertex 2.4983 1.51168 2.5
    endloop
  endfacet
  facet normal -0.246844 -0.969055 0
    outer loop
      vertex 9.22383 -0.201491 3.5
      vertex 2.4983 1.51168 3.5
      vertex 2.4983 1.51168 2.5
    endloop
  endfacet
  facet normal -0.515835 0.856688 0
    outer loop
      vertex 2.4983 1.51168 2.5
      vertex 2.4983 1.51168 3.5
      vertex 2.894 1.74994 2.5
    endloop
  endfacet
  facet normal -0.515835 0.856688 0
    outer loop
      vertex 2.4983 1.51168 3.5
      vertex 2.894 1.74994 3.5
      vertex 2.894 1.74994 2.5
    endloop
  endfacet
  facet normal -0.353127 0.935575 0
    outer loop
      vertex 2.894 1.74994 2.5
      vertex 2.894 1.74994 3.5
      vertex 3.18736 1.86067 2.5
    endloop
  endfacet
  facet normal -0.353127 0.935575 0
    outer loop
      vertex 2.894 1.74994 3.5
      vertex 3.18736 1.86067 3.5
      vertex 3.18736 1.86067 2.5
    endloop
  endfacet
  facet normal -0.1253 0.992119 0
    outer loop
      vertex 3.18736 1.86067 2.5
      vertex 3.18736 1.86067 3.5
      vertex 3.43246 1.89162 2.5
    endloop
  endfacet
  facet normal -0.1253 0.992119 0
    outer loop
      vertex 3.18736 1.86067 3.5
      vertex 3.43246 1.89162 3.5
      vertex 3.43246 1.89162 2.5
    endloop
  endfacet
  facet normal 0.941641 -0.33662 0
    outer loop
      vertex 3.43246 1.89162 2.5
      vertex 3.43246 1.89162 3.5
      vertex 3.24442 1.36563 2.5
    endloop
  endfacet
  facet normal 0.941641 -0.33662 0
    outer loop
      vertex 3.43246 1.89162 3.5
      vertex 3.24442 1.36563 3.5
      vertex 3.24442 1.36563 2.5
    endloop
  endfacet
  facet normal 0.296033 0.955178 -0
    outer loop
      vertex 3.24442 1.36563 2.5
      vertex 3.24442 1.36563 3.5
      vertex 3.54336 1.27298 2.5
    endloop
  endfacet
  facet normal 0.296033 0.955178 0
    outer loop
      vertex 3.24442 1.36563 3.5
      vertex 3.54336 1.27298 3.5
      vertex 3.54336 1.27298 2.5
    endloop
  endfacet
  facet normal -0.360833 0.93263 0
    outer loop
      vertex 3.54336 1.27298 2.5
      vertex 3.54336 1.27298 3.5
      vertex 3.82589 1.3823 2.5
    endloop
  endfacet
  facet normal -0.360833 0.93263 0
    outer loop
      vertex 3.54336 1.27298 3.5
      vertex 3.82589 1.3823 3.5
      vertex 3.82589 1.3823 2.5
    endloop
  endfacet
  facet normal -0.567293 0.823516 0
    outer loop
      vertex 3.82589 1.3823 2.5
      vertex 3.82589 1.3823 3.5
      vertex 4.11614 1.58224 2.5
    endloop
  endfacet
  facet normal -0.567293 0.823516 0
    outer loop
      vertex 3.82589 1.3823 3.5
      vertex 4.11614 1.58224 3.5
      vertex 4.11614 1.58224 2.5
    endloop
  endfacet
  facet normal -0.609959 0.792433 0
    outer loop
      vertex 4.11614 1.58224 2.5
      vertex 4.11614 1.58224 3.5
      vertex 4.61862 1.96901 2.5
    endloop
  endfacet
  facet normal -0.609959 0.792433 0
    outer loop
      vertex 4.11614 1.58224 3.5
      vertex 4.61862 1.96901 3.5
      vertex 4.61862 1.96901 2.5
    endloop
  endfacet
  facet normal -0.559578 0.828778 0
    outer loop
      vertex 4.61862 1.96901 2.5
      vertex 4.61862 1.96901 3.5
      vertex 4.8478 2.12375 2.5
    endloop
  endfacet
  facet normal -0.559578 0.828778 0
    outer loop
      vertex 4.61862 1.96901 3.5
      vertex 4.8478 2.12375 3.5
      vertex 4.8478 2.12375 2.5
    endloop
  endfacet
  facet normal 0.880404 0.474224 -0
    outer loop
      vertex 4.8478 2.12375 2.5
      vertex 4.8478 2.12375 3.5
      vertex 4.90371 2.01995 2.5
    endloop
  endfacet
  facet normal 0.880404 0.474224 0
    outer loop
      vertex 4.8478 2.12375 3.5
      vertex 4.90371 2.01995 3.5
      vertex 4.90371 2.01995 2.5
    endloop
  endfacet
endsolid OpenSCAD_Model
